<svg 
 xmlns="http://www.w3.org/2000/svg"
 xmlns:xlink="http://www.w3.org/1999/xlink"
 width="45px" height="45px">
<path fill-rule="evenodd"  fill="rgb(255, 255, 255)"
 d="M22.749,44.949 C10.463,44.949 0.503,34.989 0.503,22.701 C0.503,10.413 10.463,0.453 22.749,0.453 C35.036,0.453 44.995,10.415 44.995,22.701 C44.995,34.987 35.036,44.949 22.749,44.949 ZM22.749,3.234 C11.999,3.234 3.284,11.950 3.284,22.701 C3.284,33.452 11.999,42.168 22.749,42.168 C33.499,42.168 42.215,33.452 42.215,22.701 C42.215,11.950 33.499,3.234 22.749,3.234 ZM31.091,24.092 L24.140,24.092 L24.140,31.044 C24.140,31.812 23.517,32.435 22.749,32.435 C21.982,32.435 21.359,31.812 21.359,31.044 L21.359,24.092 L14.407,24.092 C13.639,24.092 13.017,23.468 13.017,22.701 C13.017,21.934 13.639,21.310 14.407,21.310 L21.359,21.310 L21.359,14.358 C21.359,13.590 21.982,12.967 22.749,12.967 C23.517,12.967 24.140,13.590 24.140,14.358 L24.140,21.310 L31.091,21.310 C31.859,21.310 32.482,21.934 32.482,22.701 C32.482,23.468 31.859,24.092 31.091,24.092 Z"/>
</svg>